PathFileType	4	(x/y/z)	A01_PREF_T0015.trc
DataRate	CameraRate	NumFrames	NumMarkers	Units	OrigDataRate	OrigDataStartFrame	OrigNumFrames
240	240	10	48	mm	240	271	309
Frame#	Time	TOP_HEAD			R_AC			L_AC			R_ASIS			L_ASIS			R_PSIS			L_PSIS			SACRAL			L_IC			R_IC			L_GT			R_GT			R_LAT_KNEE			R_MED_KNEE			L_MED_KNEE			L_LAT_KNEE			R_TOE			L_TOE			R_1ST_MET			L_1ST_MET			L_5TH_MET			R_5TH_MET			R_LAT_ANK			R_MED_ANK			L_MED_ANK			L_LAT_ANK			L_HEEL_SUP			R_HEEL_SUP			L_HEEL_LAT			R_HEEL_LAT			L_HEEL_MED			R_HEEL_MED			R_LL_PROX_POST			R_LL_PROX_ANT			R_LL_DIST_ANT			R_LL_DIST_POST			R_THIGH_PROX_POST			R_THIGH_PROX_ANT			R_THIGH_DIST_ANT			R_THIGH_DIST_POST			L_PROS_PROX_ANT			L_PROS_PROX_POST			L_PROS_DIST_POST			L_PROS_DIST_ANT			L_THIGH_PROX_ANT			L_THIGH_PROX_POST			L_THIGH_DIST_POST			L_THIGH_DIST_ANT			
		X1	Y1	Z1	X2	Y2	Z2	X3	Y3	Z3	X4	Y4	Z4	X5	Y5	Z5	X6	Y6	Z6	X7	Y7	Z7	X8	Y8	Z8	X9	Y9	Z9	X10	Y10	Z10	X11	Y11	Z11	X12	Y12	Z12	X13	Y13	Z13	X14	Y14	Z14	X15	Y15	Z15	X16	Y16	Z16	X17	Y17	Z17	X18	Y18	Z18	X19	Y19	Z19	X20	Y20	Z20	X21	Y21	Z21	X22	Y22	Z22	X23	Y23	Z23	X24	Y24	Z24	X25	Y25	Z25	X26	Y26	Z26	X27	Y27	Z27	X28	Y28	Z28	X29	Y29	Z29	X30	Y30	Z30	X31	Y31	Z31	X32	Y32	Z32	X33	Y33	Z33	X34	Y34	Z34	X35	Y35	Z35	X36	Y36	Z36	X37	Y37	Z37	X38	Y38	Z38	X39	Y39	Z39	X40	Y40	Z40	X41	Y41	Z41	X42	Y42	Z42	X43	Y43	Z43	X44	Y44	Z44	X45	Y45	Z45	X46	Y46	Z46	X47	Y47	Z47	X48	Y48	Z48	

271	1.1287	824.21	1803.1	331.66	633.06	1572.5	578.8	578.38	1581.2	122.57	619.65	1103.6	553.32	629.02	1057.5	199.5	404.72	1115.1	420.22	417.99	1108.4	290.54	395.22	1082.6	352.89	594.48	1178.1	158.32	593.1	1211	561.1	578.92	976.47	152.54	545.79	996.32	586.85	481.19	590.9	521.46	508.72	586.41	390.97	735.12	589.21	359.48	704.62	598.78	203.81	591.83	66.563	432.8	985.34	142.22	222.57	508.1	54.725	386.33	915.88	96.526	279.6	880.46	88.082	154.17	481.59	48.275	520.67	377.95	134.89	491.7	386.15	136.57	388.65	773	154.94	274.45	742.41	144	209.78	673.37	70.988	250.31	275.32	116.03	438.14	686.23	45.948	218.77	278.02	92.592	473.31	699.99	44.77	280.35	279.39	87.466	412.81	361.5	430.12	523.66	430.82	410.89	539.08	422.65	337.47	521.38	365.67	347.67	514.12	486.31	865.8	562.69	558	875.36	572.44	549.36	784.23	562.24	481.6	776.83	551.3	766	526.81	209.69	711.86	515.71	200.96	718.19	452.68	206.23	769.27	470.41	213.72	687.3	857.04	194.99	622.49	841.77	166.94	654.05	773.1	180.03	713.75	788.1	204.09
272	1.1328	829.6	1802.4	330.6	638.14	1572.1	578.3	583.42	1580.7	122.17	624.43	1103.3	552.95	634.8	1056.7	199.09	409.89	1114.7	419.36	423.44	1107.7	289.78	400.46	1082.1	352.11	600.27	1177.6	157.92	597.88	1210.7	560.68	584.5	975.59	152.18	550.32	996.23	586.5	483.4	591.23	521.3	510.98	586.53	390.79	739.68	588.18	359.82	709.92	597.52	203.95	591.87	66.549	432.82	999.7	146.68	223.48	508.26	54.638	386.36	930.81	99.436	280.05	896.35	90.508	154.36	481.75	48.353	520.67	378.37	135.53	491.59	386.72	137.12	388.56	786.86	154.86	274.1	756.82	143.51	209.26	689.05	68.873	249.21	275.78	116.99	437.98	702.6	44.209	217.71	278.39	93.55	473.16	716.07	43.198	279.44	279.72	88.389	412.65	362.98	430.91	523.4	432.17	411.43	538.93	423.78	338.01	521.25	366.85	348.43	513.88	490.18	866.14	562.41	561.94	875.33	572.03	552.84	784.26	561.92	485.03	777.21	551.1	772.74	526.75	210.06	718.88	514.57	201.04	726.42	451.67	206.17	777.11	470.4	214.01	692.51	855.96	194.84	627.76	840.73	166.64	659.19	772.04	179.92	718.86	787	204.18
273	1.137	834.99	1801.7	329.54	643.26	1571.6	577.79	588.46	1580.2	121.75	629.23	1103	552.57	640.58	1055.9	198.68	415.07	1114.3	418.5	428.89	1107	289	405.72	1081.6	351.32	606.08	1177.1	157.52	602.64	1210.3	560.25	590.1	974.66	151.81	554.87	996.11	586.15	485.64	591.53	521.12	513.28	586.63	390.6	744.27	587.12	360.13	715.26	596.25	204.08	591.9	66.536	432.84	1013.7	151.15	224.43	508.42	54.55	386.39	945.42	102.41	280.55	911.93	93.037	154.59	481.92	48.43	520.66	378.8	136.16	491.47	387.29	137.66	388.46	800.48	154.89	273.77	771.01	143.16	208.76	704.5	66.975	248.14	276.23	117.93	437.8	718.73	42.693	216.67	278.75	94.499	473.01	731.87	41.831	278.54	280.05	89.298	412.48	364.48	431.7	523.11	433.54	411.96	538.77	424.92	338.54	521.1	368.05	349.19	513.63	494.07	866.45	562.14	565.91	875.25	571.63	556.35	784.25	561.59	488.48	777.55	550.89	779.45	526.67	210.43	725.89	513.45	201.11	734.59	450.71	206.11	784.9	470.4	214.29	697.74	854.83	194.68	633.05	839.64	166.32	664.36	770.94	179.79	723.98	785.87	204.24
274	1.1412	840.38	1800.9	328.48	648.39	1571.1	577.27	593.51	1579.6	121.33	634.04	1102.7	552.18	646.36	1055	198.27	420.25	1113.8	417.63	434.34	1106.3	288.22	410.98	1081	350.52	611.9	1176.6	157.1	607.36	1209.9	559.81	595.7	973.69	151.44	559.43	995.95	585.79	487.91	591.8	520.93	515.61	586.7	390.39	748.88	586.01	360.43	720.64	594.98	204.2	591.94	66.524	432.86	1027.4	155.62	225.42	508.58	54.459	386.41	959.7	105.43	281.08	927.18	95.647	154.85	482.07	48.509	520.65	379.22	136.79	491.34	387.85	138.19	388.35	813.85	155.03	273.46	784.97	142.94	208.27	719.7	65.282	247.08	276.68	118.87	437.62	734.58	41.384	215.64	279.12	95.441	472.84	747.4	40.653	277.65	280.37	90.197	412.31	366	432.48	522.81	434.93	412.47	538.59	426.08	339.06	520.95	369.27	349.94	513.36	497.99	866.72	561.85	569.89	875.14	571.22	559.88	784.21	561.27	491.95	777.87	550.67	786.14	526.58	210.79	732.88	512.35	201.17	742.72	449.8	206.05	792.63	470.39	214.57	702.99	853.68	194.49	638.36	838.52	165.98	669.55	769.81	179.64	729.13	784.7	204.27
275	1.1454	845.77	1800.1	327.41	653.56	1570.6	576.74	598.56	1579	120.9	638.88	1102.3	551.78	652.14	1054.1	197.85	425.44	1113.3	416.74	439.8	1105.4	287.43	416.26	1080.3	349.71	617.73	1176	156.68	612.06	1209.5	559.36	601.32	972.68	151.06	564.01	995.75	585.43	490.21	592.05	520.73	517.98	586.74	390.17	753.53	584.88	360.72	726.07	593.71	204.32	591.97	66.513	432.89	1040.7	160.05	226.44	508.73	54.367	386.43	973.63	108.47	281.65	942.11	98.319	155.15	482.23	48.588	520.64	379.64	137.42	491.21	388.41	138.71	388.23	826.98	155.24	273.16	798.67	142.84	207.79	734.64	63.778	246.04	277.13	119.79	437.42	750.15	40.266	214.63	279.49	96.377	472.66	762.63	39.649	276.78	280.7	91.086	412.12	367.54	433.25	522.49	436.35	412.97	538.41	427.25	339.56	520.79	370.5	350.67	513.09	501.93	866.95	561.57	573.89	875	570.81	563.43	784.14	560.93	495.45	778.15	550.44	792.81	526.48	211.15	739.87	511.28	201.22	750.8	448.92	205.98	800.31	470.39	214.85	708.28	852.49	194.29	643.71	837.36	165.63	674.78	768.64	179.48	734.3	783.51	204.28
276	1.1496	851.16	1799.2	326.34	658.76	1570	576.19	603.62	1578.4	120.46	643.73	1101.9	551.37	657.91	1053.1	197.42	430.64	1112.7	415.85	445.27	1104.6	286.63	421.55	1079.6	348.88	623.54	1175.4	156.25	616.74	1209	558.89	606.95	971.63	150.68	568.6	995.51	585.07	492.55	592.27	520.52	520.39	586.76	389.93	758.23	583.72	360.98	731.55	592.45	204.43	592	66.502	432.91	1053.7	164.44	227.48	508.87	54.273	386.45	987.23	111.51	282.25	956.69	101.03	155.47	482.38	48.669	520.62	380.06	138.04	491.07	388.97	139.23	388.1	839.85	155.53	272.88	812.12	142.84	207.34	749.29	62.451	245.02	277.58	120.71	437.21	765.42	39.322	213.63	279.86	97.31	472.48	777.54	38.802	275.93	281.03	91.969	411.93	369.11	434.01	522.15	437.79	413.45	538.21	428.44	340.06	520.61	371.76	351.4	512.81	505.9	867.15	561.27	577.92	874.83	570.4	567	784.03	560.6	498.98	778.4	550.2	799.46	526.36	211.5	746.84	510.24	201.26	758.83	448.08	205.92	807.94	470.38	215.13	713.6	851.28	194.07	649.09	836.17	165.26	680.04	767.44	179.3	739.51	782.3	204.27
277	1.1537	856.56	1798.3	325.27	663.99	1569.3	575.63	608.69	1577.6	120	648.61	1101.4	550.95	663.68	1052.1	197	435.85	1112	414.95	450.74	1103.6	285.81	426.85	1078.8	348.05	629.34	1174.7	155.81	621.41	1208.4	558.41	612.61	970.53	150.3	573.2	995.24	584.7	494.93	592.47	520.29	522.85	586.75	389.68	762.99	582.55	361.24	737.09	591.19	204.53	592.02	66.49	432.94	1066.4	168.75	228.53	509.02	54.178	386.46	1000.5	114.53	282.87	970.91	103.77	155.81	482.54	48.752	520.59	380.48	138.65	490.91	389.53	139.74	387.97	852.45	155.88	272.61	825.29	142.93	206.9	763.64	61.284	244.04	278.03	121.63	436.99	780.37	38.536	212.67	280.23	98.242	472.28	792.13	38.094	275.09	281.36	92.847	411.73	370.72	434.77	521.79	439.27	413.92	537.99	429.65	340.54	520.43	373.04	352.12	512.52	509.9	867.31	560.97	581.97	874.62	569.99	570.59	783.9	560.25	502.53	778.61	549.96	806.11	526.23	211.85	753.8	509.23	201.3	766.81	447.27	205.85	815.52	470.36	215.41	718.95	850.05	193.84	654.51	834.96	164.89	685.35	766.23	179.11	744.76	781.06	204.23
278	1.1579	861.96	1797.4	324.2	669.26	1568.6	575.06	613.78	1576.9	119.53	653.5	1100.9	550.53	669.45	1051.1	196.57	441.08	1111.4	414.03	456.22	1102.7	284.99	432.18	1078	347.2	635.11	1174.1	155.37	626.06	1207.8	557.91	618.28	969.41	149.91	577.82	994.93	584.31	497.36	592.64	520.05	525.36	586.7	389.41	767.82	581.35	361.48	742.68	589.95	204.63	592.05	66.478	432.97	1078.7	172.97	229.59	509.16	54.081	386.47	1013.4	117.5	283.5	984.77	106.5	156.16	482.69	48.837	520.56	380.9	139.26	490.75	390.1	140.24	387.82	864.77	156.28	272.36	838.18	143.1	206.47	777.67	60.262	243.08	278.49	122.54	436.76	794.99	37.889	211.73	280.6	99.174	472.07	806.39	37.51	274.28	281.69	93.723	411.52	372.35	435.52	521.42	440.79	414.37	537.76	430.88	341.01	520.24	374.35	352.84	512.21	513.93	867.44	560.66	586.04	874.37	569.57	574.22	783.73	559.91	506.11	778.79	549.7	812.74	526.08	212.19	760.75	508.24	201.33	774.73	446.5	205.79	823.05	470.34	215.68	724.36	848.81	193.61	659.98	833.73	164.51	690.72	765	178.91	750.06	779.82	204.17
279	1.1621	867.37	1796.5	323.12	674.56	1567.9	574.47	618.89	1576.1	119.05	658.42	1100.4	550.09	675.22	1050.1	196.14	446.32	1110.6	413.1	461.7	1101.6	284.15	437.52	1077.2	346.34	640.85	1173.3	154.91	630.72	1207.2	557.39	623.98	968.25	149.52	582.46	994.59	583.93	499.83	592.78	519.79	527.94	586.63	389.14	772.72	580.15	361.7	748.33	588.72	204.73	592.06	66.464	433	1090.6	177.06	230.63	509.3	53.982	386.48	1025.9	120.41	284.13	998.26	109.2	156.53	482.84	48.924	520.53	381.32	139.87	490.59	390.66	140.74	387.67	876.81	156.71	272.12	850.78	143.32	206.07	791.38	59.37	242.16	278.94	123.45	436.52	809.25	37.366	210.82	280.98	100.11	471.85	820.29	37.031	273.49	282.03	94.598	411.3	374.03	436.26	521.03	442.35	414.81	537.52	432.13	341.47	520.04	375.68	353.54	511.88	518	867.53	560.34	590.15	874.09	569.15	577.87	783.52	559.55	509.72	778.94	549.44	819.36	525.91	212.52	767.7	507.28	201.36	782.6	445.76	205.73	830.53	470.31	215.95	729.81	847.56	193.37	665.5	832.49	164.13	696.14	763.76	178.7	755.4	778.58	204.09
280	1.1663	872.79	1795.5	322.03	679.9	1567.1	573.86	624.02	1575.2	118.55	663.36	1099.8	549.64	680.99	1049	195.71	451.58	1109.8	412.15	467.2	1100.6	283.29	442.88	1076.2	345.46	646.56	1172.6	154.44	635.39	1206.5	556.85	629.71	967.07	149.12	587.11	994.21	583.53	502.36	592.9	519.52	530.57	586.53	388.85	777.7	578.94	361.91	754.05	587.51	204.83	592.08	66.448	433.04	1102.2	181.02	231.67	509.44	53.882	386.49	1038.1	123.23	284.76	1011.4	111.86	156.9	482.99	49.015	520.49	381.75	140.48	490.41	391.23	141.24	387.51	888.57	157.16	271.9	863.08	143.59	205.69	804.74	58.59	241.28	279.4	124.37	436.28	823.14	36.947	209.95	281.36	101.05	471.62	833.83	36.642	272.73	282.37	95.476	411.08	375.74	436.99	520.62	443.95	415.23	537.26	433.41	341.92	519.82	377.05	354.24	511.55	522.1	867.58	560	594.28	873.77	568.73	581.56	783.29	559.19	513.37	779.05	549.16	825.99	525.72	212.84	774.63	506.34	201.38	790.41	445.04	205.67	837.96	470.26	216.21	735.31	846.31	193.13	671.07	831.23	163.75	701.63	762.52	178.48	760.81	777.34	204.01
